<svg xmlns="http://www.w3.org/2000/svg" version="1.1" xmlns:xlink="http://www.w3.org/1999/xlink" xmlns:svgjs="http://svgjs.dev/svgjs" width="1440" height="560" preserveAspectRatio="none" viewBox="0 0 1440 560"><g mask="url(&quot;#SvgjsMask1000&quot;)" fill="none"><rect width="1440" height="560" x="0" y="0" fill="#1e3266"></rect><path d="M1536 560L0 560 L0 323.43Q27.14 278.57, 72 305.71Q123.49 285.2, 144 336.69Q219.02 291.71, 264 366.72Q292.44 275.16, 384 303.6Q428.54 276.14, 456 320.68Q509.71 302.39, 528 356.11Q534.76 290.87, 600 297.63Q627.51 253.14, 672 280.65Q761.12 249.76, 792 338.88Q837.11 311.99, 864 357.09Q899.25 272.33, 984 307.58Q1074.29 277.87, 1104 368.16Q1158.54 302.7, 1224 357.23Q1253.07 266.3, 1344 295.37Q1386.58 265.94, 1416 308.52Q1489.78 262.3, 1536 336.08z" fill="#182f5d"></path><path d="M1488 560L0 560 L0 423.11Q27.18 378.3, 72 405.48Q89.63 351.11, 144 368.74Q211.79 316.53, 264 384.33Q308.57 356.9, 336 401.47Q377.99 371.46, 408 413.44Q423.57 357.01, 480 372.59Q532.23 304.81, 600 357.04Q656.53 341.57, 672 398.1Q750.35 356.45, 792 434.8Q819.23 390.03, 864 417.26Q918.66 351.92, 984 406.58Q1037.29 339.87, 1104 393.16Q1147.22 316.38, 1224 359.61Q1271.07 334.68, 1296 381.74Q1369.99 335.74, 1416 409.73Q1458.86 380.59, 1488 423.45z" fill="#25467d"></path><path d="M1560 560L0 560 L0 439.34Q38.37 405.71, 72 444.08Q123.31 375.38, 192 426.69Q274.25 388.94, 312 471.18Q355.92 395.1, 432 439.01Q461.19 396.2, 504 425.39Q564.71 414.1, 576 474.8Q599.43 426.23, 648 449.66Q678.01 407.68, 720 437.69Q772.42 418.11, 792 470.53Q844.41 402.94, 912 455.35Q977.07 448.42, 984 513.49Q1033.61 443.1, 1104 492.71Q1109.15 425.87, 1176 431.02Q1243.05 426.07, 1248 493.12Q1274.53 447.65, 1320 474.18Q1354.98 389.16, 1440 424.15Q1513.79 377.94, 1560 451.72z" fill="#356cb1"></path><path d="M1512 560L0 560 L0 503.6Q54.79 438.39, 120 493.18Q206.8 459.98, 240 546.78Q287.25 522.03, 312 569.28Q343.72 481, 432 512.71Q502.5 463.21, 552 533.71Q604.95 514.66, 624 567.61Q666.95 538.56, 696 581.5Q698.02 511.52, 768 513.55Q794.34 467.88, 840 494.22Q924.56 458.78, 960 543.34Q1004.88 516.22, 1032 561.1Q1061.92 471.02, 1152 500.95Q1227.68 456.63, 1272 532.32Q1324.73 465.05, 1392 517.78Q1479.21 485, 1512 572.21z" fill="white"></path></g><defs><mask id="SvgjsMask1000"><rect width="1440" height="560" fill="#ffffff"></rect></mask></defs></svg>