<svg xmlns="http://www.w3.org/2000/svg" version="1.1" xmlns:xlink="http://www.w3.org/1999/xlink" xmlns:svgjs="http://svgjs.dev/svgjs" width="1440" height="560" preserveAspectRatio="none" viewBox="0 0 1440 560"><g mask="url(&quot;#SvgjsMask1002&quot;)" fill="none"><rect width="1440" height="560" x="0" y="0" fill="url(&quot;#SvgjsLinearGradient1003&quot;)"></rect><path d="M1440 0L1435.18 0L1440 11.57z" fill="rgba(255, 255, 255, .1)"></path><path d="M1435.18 0L1440 11.57L1440 294.27L965.5600000000001 0z" fill="rgba(255, 255, 255, .075)"></path><path d="M965.56 0L1440 294.27L1440 451.07L601.52 0z" fill="rgba(255, 255, 255, .05)"></path><path d="M601.52 0L1440 451.07L1440 451.52L502.38 0z" fill="rgba(255, 255, 255, .025)"></path><path d="M0 560L231.71 560L0 337.24z" fill="rgba(0, 0, 0, .1)"></path><path d="M0 337.24L231.71 560L776.2 560L0 202.9z" fill="rgba(0, 0, 0, .075)"></path><path d="M0 202.89999999999998L776.2 560L1102.15 560L0 181.09999999999997z" fill="rgba(0, 0, 0, .05)"></path><path d="M0 181.09999999999997L1102.15 560L1220.52 560L0 160.49999999999997z" fill="rgba(0, 0, 0, .025)"></path></g><defs><mask id="SvgjsMask1002"><rect width="1440" height="560" fill="#ffffff"></rect></mask><linearGradient x1="15.28%" y1="-39.29%" x2="84.72%" y2="139.29%" gradientUnits="userSpaceOnUse" id="SvgjsLinearGradient1003"><stop stop-color="#0e2a47" offset="0"></stop><stop stop-color="#00459e" offset="1"></stop></linearGradient></defs></svg>